HIERARCHY
ROOT pelvis
{
  OFFSET 0 100 0
  CHANNELS 6 Xposition Yposition Zposition Zrotation Xrotation Yrotation
  JOINT pelvis_right_femur
  {
    OFFSET -10.78128 -3.44521 -0.5502486
    CHANNELS 3 Zrotation Xrotation Yrotation
    JOINT right_femur_tibia
    {
      OFFSET -0.8047443 -44.0398 -0.1307829
      CHANNELS 3 Zrotation Xrotation Yrotation
      JOINT right_tibia_foot
      {
        OFFSET 3.006224 -47.83518 -5
        CHANNELS 3 Zrotation Xrotation Yrotation
        End Site
        {
          OFFSET 0 -5 15
        }
      }
    }
  }
  JOINT pelvis_left_femur
  {
    OFFSET 10.78128 -3.44521 -0.5502486
    CHANNELS 3 Zrotation Xrotation Yrotation
    JOINT left_femur_tibia
    {
      OFFSET 0.8047443 -44.0398 -0.1307829
      CHANNELS 3 Zrotation Xrotation Yrotation
      JOINT left_tibia_foot
      {
        OFFSET -4.370144 -48.10324 -4.275266
        CHANNELS 3 Zrotation Xrotation Yrotation
        End Site
        {
          OFFSET 0 -5 15
        }
      }
    }
  }
  JOINT pelvis_spine1
  {
    OFFSET 0 6.468898 -3.129235
    CHANNELS 3 Zrotation Xrotation Yrotation
    JOINT spine1
    {
      OFFSET 0 23.15396 4.99043
      CHANNELS 3 Zrotation Xrotation Yrotation
      JOINT spine2
      {
        OFFSET 0 20.79997 -5.064912
        CHANNELS 3 Zrotation Xrotation Yrotation
        JOINT neck
        {
          OFFSET 0 14.38658 9.616178
          CHANNELS 3 Zrotation Xrotation Yrotation
          End Site
          {
            OFFSET 0 20 0
          }
        }
      }
      JOINT right_manubrium
      {
        OFFSET -5.722621 16.35077 3.967754
        CHANNELS 3 Zrotation Xrotation Yrotation
        JOINT right_clavicle
        {
          OFFSET -13.16364 1.694482 -4.693211
          CHANNELS 3 Zrotation Xrotation Yrotation
          JOINT right_humerus
          {
            OFFSET -28.5034 -0.3100689 -2.792744
            CHANNELS 3 Zrotation Xrotation Yrotation
            JOINT right_radius
            {
              OFFSET -25.15693 0.02248979 -1.271978
              CHANNELS 3 Zrotation Xrotation Yrotation
              End Site
              {
                OFFSET -15 0 0
              }
            }
          }
        }
      }
      JOINT left_manubrium
      {
        OFFSET 5.722621 16.35077 3.967754
        CHANNELS 3 Zrotation Xrotation Yrotation
        JOINT left_clavicle
        {
          OFFSET 13.16364 1.694482 -4.693211
          CHANNELS 3 Zrotation Xrotation Yrotation
          JOINT left_humerus
          {
            OFFSET 29.39168 -1.063119 -2.237045
            CHANNELS 3 Zrotation Xrotation Yrotation
            JOINT left_radius
            {
              OFFSET 24.59957 -0.9528479 0.9047498
              CHANNELS 3 Zrotation Xrotation Yrotation
              End Site
              {
                OFFSET 15 -0 -0
              }
            }
          }
        }
      }
    }
  }
}
MOTION
Frames: 15
Frame Time: 0.0416666666667
0 103.5113 0 0.2761563 1.63486 0.788703 3.757851 -21.22854 8.701613 -0 41.38486 -0 -4.880906 -12.94029 -4.951142 -6.996114 9.024194 -21.96135 -0 4.764712 -0 0.1778736 -21.19188 19.77416 -3.928071 -1.332849 3.715585 2.862484 7.656646 -8.833823 0.01970931 21.35504 8.724003 3.802392 -25.8834 9.100453 8.178714 -18.93757 11.6499 85.75183 41.11022 -21.03557 -0 0 16.10054 -8.037825 10.55913 7.222692 3.547951 -18.65341 -1.949302 -97.8607 38.71402 28.31955 0 0 -20.86856 -8.404871 12.58871 26.54189
0.4539317 104.2362 1.466728 0.2830778 1.587262 1.631055 3.7049 -20.40702 9.058424 -0 43.39972 -0 -4.617239 -13.03649 -5.101594 -7.111048 8.497938 -22.07515 -0 5.163466 -0 -0.01542806 -20.91063 19.65336 -3.962243 -1.391623 3.850559 2.816626 7.717227 -8.842392 -0.0272008 21.26516 8.741058 3.764139 -25.93058 9.086992 8.39558 -19.11691 11.71852 85.5866 41.34907 -20.91619 -0 0 16.59339 -8.014557 10.82608 7.299194 3.24424 -18.41887 -1.966806 -98.66378 39.11815 29.56688 0 0 -20.45606 -9.213797 12.22823 27.71528
0.7632537 104.3183 3.20197 0.06261678 2.137671 2.351021 4.212137 -24.73406 8.260434 -0 34.45781 -0 -4.336883 -13.97854 -5.242803 -6.427638 11.06683 -21.2864 -0 2.602976 -0 -0.2979562 -22.5128 19.15351 -3.790364 -1.115831 3.388788 3.093548 7.184629 -9.084874 0.1464667 21.25133 8.677406 3.678052 -25.56176 9.212919 7.726068 -18.31292 11.37026 86.10754 40.64189 -21.85437 -0 0 15.34672 -8.083101 10.77455 6.981091 4.264669 -19.19673 -1.841787 -95.62243 38.57578 25.00489 0 0 -23.27341 -7.718978 12.5193 25.38293
0.9701358 103.8258 5.386325 -0.14858 2.508924 2.980214 4.569198 -28.33153 7.33567 -0 26.52108 -0 -3.874102 -14.15783 -5.395992 -5.813635 13.33488 -20.1123 -0 0.9867049 -0 -0.9260989 -23.70277 18.22106 -3.539966 -0.9097412 3.00019 3.257086 6.798128 -9.287793 0.3192783 21.15433 8.582792 3.554967 -25.0902 9.279454 6.942561 -17.57157 11.04394 86.71676 39.54533 -22.72493 -0 0 14.21053 -8.663644 10.96338 6.846843 5.147976 -19.94784 -1.841161 -92.70006 37.56047 20.80124 0 0 -25.89621 -6.325047 12.51709 23.219
1.109978 102.8444 8.259763 -0.3042104 2.389344 3.549144 4.627966 -31.0167 6.149147 -0 19.96159 -0 -3.237023 -13.34792 -5.741653 -5.237163 15.52992 -18.38916 -0 0.7431511 -0 -2.123005 -24.32751 16.74982 -3.200854 -0.6915938 2.583885 3.255516 6.570976 -9.39099 0.5515254 21.09012 8.382111 3.341873 -24.22347 9.267968 5.98121 -16.71115 10.68507 87.47648 37.79042 -23.42023 -0 0 12.95499 -9.969446 11.43041 6.965539 5.874105 -20.62482 -2.034637 -89.65362 35.97359 16.51733 0 0 -28.08256 -4.979698 12.19661 21.10626
1.216993 101.5349 11.98978 -0.4612684 2.003782 4.072756 4.554569 -32.82269 4.968181 -0 14.88334 -0 -2.555131 -11.97539 -6.241942 -4.706037 17.61667 -16.45919 -0 1.9708 -0 -3.811418 -24.26659 14.8923 -2.767148 -0.4866139 2.154808 3.162937 6.42146 -9.416151 0.8177719 21.03623 8.119944 3.084952 -23.17623 9.22013 5.055253 -15.74208 10.32998 88.25894 35.8466 -23.93999 -0 0 11.64373 -11.57597 12.10351 7.248009 6.389197 -21.1226 -2.29584 -86.92395 34.11909 12.64055 0 0 -29.66801 -3.8179 11.64278 19.29504
1.325469 100.1319 16.66832 -0.6587486 1.481294 4.544359 4.525485 -33.55058 4.086965 -0 11.67954 -0 -1.929189 -10.35714 -6.830804 -4.222315 19.39673 -14.60769 -0 5.078428 -0 -5.81721 -23.28715 12.88577 -2.231926 -0.3257146 1.764481 3.024123 6.326151 -9.350832 1.103829 20.98233 7.822705 2.822383 -22.1187 9.164507 4.35697 -14.70247 10.02324 88.9318 34.08704 -24.23286 -0 0 10.36905 -13.15014 12.92889 7.612838 6.624433 -21.32292 -2.525301 -84.80753 32.23246 9.578228 0 0 -30.37776 -2.858284 10.95276 17.88918
1.466422 98.94412 22.26794 -0.9196024 0.9347044 4.933737 4.730935 -32.91853 3.841928 -0 10.82536 -0 -1.457853 -8.880266 -7.409521 -3.780784 20.50741 -13.14349 -0 10.52408 -0 -7.853116 -21.19485 11.086 -1.609593 -0.2373747 1.503819 2.881562 6.286876 -9.178748 1.386747 20.92379 7.520552 2.594393 -21.24042 9.120901 4.085226 -13.68374 9.820568 89.33819 32.9079 -24.24544 -0 0 9.28509 -14.33166 13.84266 7.94904 6.502383 -21.1116 -2.62588 -83.56302 30.62682 7.766607 0 0 -29.94058 -2.13216 10.23581 17.01355
1.658072 98.29513 28.61267 -1.209676 0.3652234 5.189098 5.233949 -30.67731 4.400652 -0 12.52487 -0 -1.224517 -7.904303 -7.87513 -3.388673 20.49042 -12.25607 -0 18.59981 -0 -9.571838 -18.00151 9.901901 -0.9537381 -0.2106717 1.476572 2.755406 6.348718 -8.878435 1.645238 20.8981 7.228243 2.42993 -20.64864 9.084871 4.334819 -12.80885 9.774431 89.35768 32.5288 -23.92208 -0 0 8.52851 -14.88389 14.74234 8.141612 5.994243 -20.46471 -2.554237 -83.30472 29.52678 7.432624 0 0 -28.25305 -1.622559 9.607722 16.67037
1.893771 98.41143 35.3939 -1.414507 -0.3766783 5.24817 5.871348 -26.83425 5.570969 -0 16.19677 -0 -1.236107 -7.666733 -8.166011 -3.090456 18.9482 -11.85156 -0 28.98502 -0 -10.69497 -14.10743 9.631886 -0.3648602 -0.1690708 1.757486 2.628609 6.588445 -8.436087 1.869152 20.99263 6.932132 2.330055 -20.27547 9.021549 4.980036 -12.20054 9.914727 88.97279 32.79502 -23.22083 -0 0 8.155519 -14.86764 15.48226 8.130076 5.190386 -19.53269 -2.368105 -83.91294 28.90623 8.361668 0 0 -25.6071 -1.249253 9.152014 16.6519
2.136035 99.30444 42.25166 -1.37441 -1.534858 5.06361 6.333439 -21.79363 6.815687 -0 20.28094 -0 -1.373153 -8.176868 -8.28813 -2.933571 15.73477 -11.50507 -0 40.3843 -0 -11.12152 -10.28776 10.30543 0.03490602 0.009270279 2.348438 2.444153 7.072374 -7.856193 2.066623 21.30694 6.59059 2.258885 -19.86123 8.87571 5.642451 -11.94805 10.22547 88.30073 33.1187 -22.12845 -0 0 8.13077 -14.73259 15.91791 7.983995 4.325937 -18.6315 -2.233407 -84.97231 28.44151 9.827164 0 0 -22.72908 -0.880766 8.876041 16.55078
2.330843 100.7386 48.88949 -1.002575 -3.224872 4.638514 6.404448 -16.2112 7.571731 -0 22.85408 -0 -1.431022 -9.261672 -8.270961 -2.860875 11.02656 -10.72395 -0 50.653 -0 -10.92965 -7.361782 11.67567 0.1624144 0.4035652 3.176765 2.141693 7.781978 -7.166156 2.252982 21.86203 6.169895 2.166566 -19.13448 8.610225 5.881024 -12.10529 10.63561 87.51086 32.81994 -20.65966 -0 0 8.436512 -15.08348 15.99121 7.901148 3.682772 -18.06181 -2.317208 -85.94915 27.75584 11.00595 0 0 -20.42328 -0.4312287 8.703799 16.01584
2.446437 102.3295 55.16131 -0.3864931 -5.212197 4.030706 6.100256 -10.62416 7.605909 -0 22.76087 -0 -1.255665 -10.74759 -8.087066 -2.682793 5.212353 -9.339355 -0 57.58243 -0 -10.30609 -5.748914 13.37759 0.02681835 0.9650619 4.141831 1.714886 8.571404 -6.411541 2.425528 22.53778 5.69397 2.035252 -18.0779 8.246516 5.501377 -12.70504 11.0426 86.67326 31.6758 -18.82897 -0 0 9.19061 -16.2204 15.76314 8.090018 3.416472 -17.88547 -2.625345 -86.59998 26.7524 11.65772 0 0 -19.03721 0.02798484 8.53313 15.07693
2.508161 103.7041 61.08843 0.2559614 -6.968487 3.301525 5.586208 -5.251427 7.088658 -0 20.20406 -0 -0.8336152 -12.55413 -7.64486 -2.217867 -1.245389 -7.609439 -0 59.83832 -0 -9.480924 -5.322828 15.10308 -0.2786712 1.535422 5.155286 1.22815 9.219538 -5.645084 2.554495 23.12612 5.251264 1.895041 -16.98056 7.860337 4.671623 -13.73771 11.35472 85.69443 30.0875 -16.63765 -0 0 10.58709 -17.93158 15.35158 8.648803 3.484023 -17.89187 -2.970424 -87.12106 25.68548 12.27123 0 0 -18.29701 0.2864706 8.309761 14.16173
2.592027 104.6181 66.80604 0.7265098 -7.990758 2.479559 5.018944 -0.121665 6.375854 -0 16.35733 -0 -0.2432434 -14.58361 -6.868169 -1.445204 -7.861994 -5.968277 -0 57.36762 -0 -8.670387 -5.648215 16.66302 -0.6380342 1.95096 6.143974 0.7706084 9.545053 -4.912648 2.606346 23.45554 4.944475 1.793952 -16.211 7.536929 3.741626 -15.10965 11.52117 84.41498 28.69173 -14.10862 -0 0 12.70037 -19.74628 14.85915 9.548928 3.730425 -17.77749 -3.118172 -87.8534 24.91684 13.50599 0 0 -17.64441 0.1578147 8.037184 13.75468
